<svg width="134" height="16" viewBox="0 0 134 16" fill="none" xmlns="http://www.w3.org/2000/svg">
<path d="M0.326965 8.76473L7.46931 15.6835C7.90524 16.1058 8.61165 16.1058 9.04759 15.6835C9.48353 15.2612 9.48353 14.5768 9.04759 14.1545L3.81071 9.08125L132.884 9.08125C133.501 9.08125 134 8.59717 134 8.00002C134 7.40287 133.501 6.91879 132.884 6.91879L3.81024 6.91879L9.04712 1.84551C9.48306 1.42319 9.48306 0.73885 9.04712 0.31653C8.82915 0.105371 8.54368 1.71661e-05 8.25821 1.71661e-05C7.97274 1.71661e-05 7.68681 0.105825 7.46931 0.31653L0.326965 7.23575C-0.108972 7.65762 -0.108972 8.34241 0.326965 8.76473Z" fill="url(#paint0_linear_542_35)"/>
<defs>
<linearGradient id="paint0_linear_542_35" x1="142.844" y1="8.00013" x2="-15.812" y2="8.00013" gradientUnits="userSpaceOnUse">
<stop stop-color="#69D06A"/>
<stop offset="1" stop-color="#B0C63C"/>
</linearGradient>
</defs>
</svg>
