<svg width="134" height="16" viewBox="0 0 134 16" fill="none" xmlns="http://www.w3.org/2000/svg">
<path d="M133.673 7.23576L126.531 0.316984C126.095 -0.105336 125.389 -0.105336 124.953 0.316984C124.517 0.739303 124.517 1.42364 124.953 1.84596L130.19 6.91924H1.11609C0.499687 6.91924 0 7.40332 0 8.00047C0 8.59762 0.499687 9.0817 1.11609 9.0817H130.19L124.953 14.155C124.517 14.5773 124.517 15.2616 124.953 15.684C125.171 15.8951 125.457 16.0005 125.742 16.0005C126.028 16.0005 126.313 15.8947 126.531 15.684L133.673 8.76473C134.109 8.34287 134.109 7.65807 133.673 7.23576Z" fill="url(#paint0_linear_391_1487)"/>
<defs>
<linearGradient id="paint0_linear_391_1487" x1="-8.84402" y1="8.00036" x2="149.812" y2="8.00036" gradientUnits="userSpaceOnUse">
<stop stop-color="#69D06A"/>
<stop offset="1" stop-color="#B0C63C"/>
</linearGradient>
</defs>
</svg>
